<svg xmlns="http://www.w3.org/2000/svg" xmlns:xlink="http://www.w3.org/1999/xlink" width="300" zoomAndPan="magnify" viewBox="0 0 224.87999 89.999999" height="120" preserveAspectRatio="xMidYMid meet" version="1.0"><defs><g/></defs><g fill="#f5efe7" fill-opacity="1"><g transform="translate(1.633504, 69.29037)"><g><path d="M 47.09375 -7.671875 C 47.09375 -9.578125 46.453125 -11.546875 44.953125 -13.0625 C 43.125 -14.875 40.75 -15.1875 38.625 -15.1875 L 36.25 -15.1875 C 35.21875 -15.1875 33.796875 -14.953125 33 -14.171875 C 32.203125 -13.375 32.046875 -12.03125 32.046875 -10.84375 L 31.265625 -10.84375 C 31.265625 -11.953125 31.015625 -13.453125 30.234375 -14.25 C 29.4375 -15.03125 28.09375 -15.1875 26.90625 -15.1875 L 26.90625 -15.984375 C 28.09375 -15.984375 29.4375 -16.140625 30.234375 -16.9375 C 31.015625 -17.734375 31.265625 -19.15625 31.265625 -20.34375 L 31.265625 -26.671875 C 31.265625 -27.859375 31.109375 -29.203125 30.3125 -30 C 29.515625 -30.78125 28.09375 -31.015625 26.90625 -31.015625 L 26.90625 -31.8125 C 28.09375 -31.8125 29.4375 -31.96875 30.234375 -32.765625 C 31.015625 -33.5625 31.265625 -35.0625 31.265625 -36.171875 L 32.046875 -36.171875 C 32.046875 -34.984375 32.203125 -33.640625 33 -32.84375 C 33.796875 -32.046875 35.21875 -31.8125 36.25 -31.8125 L 38.625 -31.8125 C 40.75 -31.8125 43.125 -32.125 44.953125 -33.953125 C 46.453125 -35.453125 47.09375 -37.4375 47.09375 -39.328125 C 47.09375 -41.234375 46.453125 -43.203125 44.953125 -44.71875 C 43.125 -46.53125 40.75 -46.84375 38.625 -46.84375 L 24.6875 -46.84375 C 22.5625 -46.84375 20.1875 -46.53125 18.359375 -44.71875 C 16.546875 -42.890625 16.21875 -40.515625 16.21875 -38.390625 L 16.21875 -36.015625 C 16.21875 -34.984375 16.46875 -33.5625 17.25 -32.765625 C 18.046875 -31.96875 19.390625 -31.8125 20.578125 -31.8125 L 20.578125 -31.015625 C 19.390625 -31.015625 17.96875 -30.78125 17.171875 -30 C 16.375 -29.203125 16.21875 -27.859375 16.21875 -26.671875 L 15.4375 -26.671875 C 15.4375 -27.859375 15.1875 -29.28125 14.40625 -30.078125 C 13.609375 -30.859375 12.265625 -31.015625 11.234375 -31.015625 L 8.859375 -31.015625 C 6.734375 -31.015625 4.359375 -30.703125 2.53125 -28.890625 C 1.03125 -27.375 0.390625 -25.40625 0.390625 -23.5 C 0.390625 -21.609375 1.03125 -19.625 2.53125 -18.125 C 4.359375 -16.296875 6.734375 -15.984375 8.859375 -15.984375 L 11.234375 -15.984375 C 12.265625 -15.984375 13.6875 -16.21875 14.484375 -17.015625 C 15.28125 -17.8125 15.4375 -19.15625 15.4375 -20.34375 L 16.21875 -20.34375 C 16.21875 -19.15625 16.46875 -17.734375 17.25 -16.9375 C 18.046875 -16.140625 19.390625 -15.984375 20.578125 -15.984375 L 20.578125 -15.1875 C 19.390625 -15.1875 18.046875 -15.03125 17.25 -14.25 C 16.46875 -13.453125 16.21875 -12.03125 16.21875 -11 L 16.21875 -8.625 C 16.21875 -6.484375 16.546875 -4.109375 18.359375 -2.296875 C 20.1875 -0.46875 22.5625 -0.15625 24.6875 -0.15625 L 38.625 -0.15625 C 40.75 -0.15625 43.125 -0.46875 44.953125 -2.296875 C 46.453125 -3.796875 47.09375 -5.78125 47.09375 -7.671875 Z M 47.09375 -7.671875 "/></g></g></g><g fill="#f5efe7" fill-opacity="1"><g transform="translate(49.122122, 69.29037)"><g><path d="M 47.09375 -24.453125 L 47.09375 -38.390625 C 47.09375 -40.515625 46.765625 -42.890625 44.953125 -44.71875 C 43.125 -46.53125 40.75 -46.84375 38.625 -46.84375 L 8.859375 -46.84375 C 6.734375 -46.84375 4.359375 -46.53125 2.53125 -44.71875 C 0.71875 -42.890625 0.390625 -40.515625 0.390625 -38.390625 L 0.390625 -8.625 C 0.390625 -6.484375 0.71875 -4.109375 2.53125 -2.296875 C 4.03125 -0.796875 6.015625 -0.15625 7.921875 -0.15625 C 9.8125 -0.15625 11.796875 -0.796875 13.296875 -2.296875 C 15.109375 -4.109375 15.4375 -6.484375 15.4375 -8.625 L 15.4375 -26.828125 C 15.4375 -27.859375 15.1875 -29.28125 14.40625 -30.078125 C 13.609375 -30.859375 12.265625 -31.015625 11.078125 -31.015625 L 11.078125 -31.8125 C 12.265625 -31.8125 13.609375 -31.96875 14.40625 -32.765625 C 15.1875 -33.5625 15.4375 -34.984375 15.4375 -36.171875 L 16.21875 -36.171875 C 16.21875 -34.984375 16.375 -33.640625 17.171875 -32.84375 C 17.96875 -32.046875 19.390625 -31.8125 20.421875 -31.8125 L 27.0625 -31.8125 C 28.09375 -31.8125 29.515625 -32.046875 30.3125 -32.84375 C 31.109375 -33.640625 31.265625 -34.984375 31.265625 -36.171875 L 32.046875 -36.171875 C 32.046875 -34.984375 32.296875 -33.5625 33.078125 -32.765625 C 33.875 -31.96875 35.21875 -31.8125 36.40625 -31.8125 L 36.40625 -31.015625 C 35.21875 -31.015625 33.875 -30.859375 33.078125 -30.078125 C 32.296875 -29.28125 32.046875 -27.859375 32.046875 -26.828125 L 32.046875 -24.453125 C 32.046875 -22.3125 32.375 -19.9375 34.1875 -18.125 C 35.6875 -16.625 37.671875 -15.984375 39.578125 -15.984375 C 41.46875 -15.984375 43.453125 -16.625 44.953125 -18.125 C 46.765625 -19.9375 47.09375 -22.3125 47.09375 -24.453125 Z M 47.09375 -24.453125 "/></g></g></g><g fill="#f5efe7" fill-opacity="1"><g transform="translate(96.610741, 69.29037)"><g><path d="M 47.09375 -8.625 L 47.09375 -22.5625 C 47.09375 -24.6875 46.765625 -27.0625 44.953125 -28.890625 C 43.125 -30.703125 40.75 -31.015625 38.625 -31.015625 L 20.421875 -31.015625 C 19.390625 -31.015625 17.96875 -30.78125 17.171875 -30 C 16.375 -29.203125 16.21875 -27.859375 16.21875 -26.671875 L 15.4375 -26.671875 C 15.4375 -27.859375 15.1875 -29.28125 14.40625 -30.078125 C 13.609375 -30.859375 12.265625 -31.015625 11.078125 -31.015625 L 11.078125 -31.8125 C 12.265625 -31.8125 13.609375 -31.96875 14.40625 -32.765625 C 15.1875 -33.5625 15.4375 -34.984375 15.4375 -36.171875 L 16.21875 -36.171875 C 16.21875 -34.984375 16.375 -33.640625 17.171875 -32.84375 C 17.96875 -32.046875 19.390625 -31.8125 20.421875 -31.8125 L 38.625 -31.8125 C 40.75 -31.8125 43.125 -32.125 44.953125 -33.953125 C 46.453125 -35.453125 47.09375 -37.4375 47.09375 -39.328125 C 47.09375 -41.234375 46.453125 -43.203125 44.953125 -44.71875 C 43.125 -46.53125 40.75 -46.84375 38.625 -46.84375 L 8.859375 -46.84375 C 6.734375 -46.84375 4.359375 -46.53125 2.53125 -44.71875 C 0.71875 -42.890625 0.390625 -40.515625 0.390625 -38.390625 L 0.390625 -24.453125 C 0.390625 -22.3125 0.71875 -19.9375 2.53125 -18.125 C 4.359375 -16.296875 6.734375 -15.984375 8.859375 -15.984375 L 27.0625 -15.984375 C 28.09375 -15.984375 29.515625 -16.21875 30.3125 -17.015625 C 31.109375 -17.8125 31.265625 -19.15625 31.265625 -20.34375 L 32.046875 -20.34375 C 32.046875 -19.15625 32.296875 -17.734375 33.078125 -16.9375 C 33.875 -16.140625 35.21875 -15.984375 36.40625 -15.984375 L 36.40625 -15.1875 C 35.21875 -15.1875 33.875 -15.03125 33.078125 -14.25 C 32.296875 -13.453125 32.046875 -12.03125 32.046875 -10.84375 L 31.265625 -10.84375 C 31.265625 -12.03125 31.109375 -13.375 30.3125 -14.171875 C 29.515625 -14.953125 28.09375 -15.1875 27.0625 -15.1875 L 8.859375 -15.1875 C 6.734375 -15.1875 4.359375 -14.875 2.53125 -13.0625 C 1.03125 -11.546875 0.390625 -9.578125 0.390625 -7.671875 C 0.390625 -5.78125 1.03125 -3.796875 2.53125 -2.296875 C 4.359375 -0.46875 6.734375 -0.15625 8.859375 -0.15625 L 38.625 -0.15625 C 40.75 -0.15625 43.125 -0.46875 44.953125 -2.296875 C 46.765625 -4.109375 47.09375 -6.484375 47.09375 -8.625 Z M 47.09375 -8.625 "/></g></g></g><g fill="#f5efe7" fill-opacity="1"><g transform="translate(144.099355, 69.29037)"><g/></g></g><g fill="#f5efe7" fill-opacity="1"><g transform="translate(159.928885, 69.29037)"><g><path d="M 15.4375 7.4375 L 15.4375 -54.453125 C 15.4375 -56.5 15.03125 -58.796875 13.453125 -60.390625 C 12.03125 -61.8125 10.046875 -62.671875 7.921875 -62.671875 C 5.78125 -62.671875 3.796875 -61.8125 2.375 -60.390625 C 0.796875 -58.796875 0.390625 -56.5 0.390625 -54.453125 L 0.390625 7.4375 C 0.390625 9.5 0.796875 11.796875 2.375 13.375 C 3.796875 14.796875 5.78125 15.671875 7.921875 15.671875 C 10.046875 15.671875 12.03125 14.796875 13.453125 13.375 C 15.03125 11.796875 15.4375 9.5 15.4375 7.4375 Z M 15.4375 7.4375 "/></g></g></g><g fill="#f5efe7" fill-opacity="1"><g transform="translate(175.758415, 69.29037)"><g><path d="M 47.09375 -23.5 C 47.09375 -25.40625 46.453125 -27.375 44.953125 -28.890625 C 43.125 -30.703125 40.75 -31.015625 38.625 -31.015625 L 36.25 -31.015625 C 35.21875 -31.015625 33.875 -30.859375 33.078125 -30.078125 C 32.296875 -29.28125 32.046875 -27.859375 32.046875 -26.671875 L 31.265625 -26.671875 C 31.265625 -27.859375 31.109375 -29.203125 30.3125 -30 C 29.515625 -30.78125 28.09375 -31.015625 26.90625 -31.015625 L 26.90625 -31.8125 C 28.09375 -31.8125 29.4375 -31.96875 30.234375 -32.765625 C 31.015625 -33.5625 31.265625 -34.984375 31.265625 -36.015625 L 31.265625 -38.390625 C 31.265625 -40.515625 30.9375 -42.890625 29.125 -44.71875 C 27.296875 -46.53125 24.921875 -46.84375 22.796875 -46.84375 L 8.859375 -46.84375 C 6.734375 -46.84375 4.359375 -46.53125 2.53125 -44.71875 C 1.03125 -43.203125 0.390625 -41.234375 0.390625 -39.328125 C 0.390625 -37.4375 1.03125 -35.453125 2.53125 -33.953125 C 4.359375 -32.125 6.734375 -31.8125 8.859375 -31.8125 L 11.234375 -31.8125 C 12.265625 -31.8125 13.6875 -32.046875 14.484375 -32.84375 C 15.28125 -33.640625 15.4375 -34.984375 15.4375 -36.171875 L 16.21875 -36.171875 C 16.21875 -35.0625 16.46875 -33.5625 17.25 -32.765625 C 18.046875 -31.96875 19.390625 -31.8125 20.578125 -31.8125 L 20.578125 -31.015625 C 19.390625 -31.015625 17.96875 -30.78125 17.171875 -30 C 16.375 -29.203125 16.21875 -27.859375 16.21875 -26.671875 L 16.21875 -20.34375 C 16.21875 -19.15625 16.46875 -17.734375 17.25 -16.9375 C 18.046875 -16.140625 19.390625 -15.984375 20.578125 -15.984375 L 20.578125 -15.1875 C 19.390625 -15.1875 18.046875 -15.03125 17.25 -14.25 C 16.46875 -13.453125 16.21875 -11.953125 16.21875 -10.84375 L 15.4375 -10.84375 C 15.4375 -12.03125 15.28125 -13.375 14.484375 -14.171875 C 13.6875 -14.953125 12.265625 -15.1875 11.234375 -15.1875 L 8.859375 -15.1875 C 6.734375 -15.1875 4.359375 -14.875 2.53125 -13.0625 C 1.03125 -11.546875 0.390625 -9.578125 0.390625 -7.671875 C 0.390625 -5.78125 1.03125 -3.796875 2.53125 -2.296875 C 4.359375 -0.46875 6.734375 -0.15625 8.859375 -0.15625 L 22.796875 -0.15625 C 24.921875 -0.15625 27.296875 -0.46875 29.125 -2.296875 C 30.9375 -4.109375 31.265625 -6.484375 31.265625 -8.625 L 31.265625 -11 C 31.265625 -12.03125 31.015625 -13.453125 30.234375 -14.25 C 29.4375 -15.03125 28.09375 -15.1875 26.90625 -15.1875 L 26.90625 -15.984375 C 28.09375 -15.984375 29.4375 -16.140625 30.234375 -16.9375 C 31.015625 -17.734375 31.265625 -19.15625 31.265625 -20.34375 L 32.046875 -20.34375 C 32.046875 -19.15625 32.203125 -17.8125 33 -17.015625 C 33.796875 -16.21875 35.21875 -15.984375 36.25 -15.984375 L 38.625 -15.984375 C 40.75 -15.984375 43.125 -16.296875 44.953125 -18.125 C 46.453125 -19.625 47.09375 -21.609375 47.09375 -23.5 Z M 47.09375 -23.5 "/></g></g></g></svg>